<svg xmlns="http://www.w3.org/2000/svg" viewBox="0 0 256 256"><path fill="#F7DF1E" d="M0 0h256v256H0z"/><path d="m67.312 213.932 19.59-11.856c3.78 6.701 7.218 12.371 15.465 12.371 7.905 0 12.889-3.092 12.889-15.12v-83.674h24.057v84.141c0 24.852-14.55 36.208-35.769 36.208-19.155 0-30.281-9.93-36.232-21.996m85.07-9.36 19.558-11.341c5.127 8.375 11.856 14.579 23.715 14.579 9.961 0 16.247-4.984 16.247-11.877 0-8.312-6.575-11.279-17.601-16.15l-6.041-2.59c-17.445-7.437-29.046-16.776-29.046-36.487 0-18.155 13.838-31.95 35.445-31.95 15.372 0 26.43 5.35 34.363 19.379l-18.813 12.058c-4.145-7.437-8.634-10.36-15.55-10.36-7.078 0-11.564 4.492-11.564 10.36 0 7.25 4.492 10.184 14.856 14.702l6.041 2.59c20.543 8.807 32.113 17.813 32.113 38.018 0 21.778-17.117 33.715-40.083 33.715-22.49 0-37.074-10.7-44.183-24.346"/></svg>
